<?xml version="1.0" encoding="UTF-8" standalone="no"?>
<svg width="179px" height="212px" viewBox="0 0 179 212" version="1.1" xmlns="http://www.w3.org/2000/svg" xmlns:xlink="http://www.w3.org/1999/xlink" xmlns:sketch="http://www.bohemiancoding.com/sketch/ns">
    <!-- Generator: Sketch 3.2.2 (9983) - http://www.bohemiancoding.com/sketch -->
    <title>Untitled</title>
    <desc>Created with Sketch.</desc>
    <defs></defs>
    <g id="Page-1" stroke="none" stroke-width="1" fill="none" fill-rule="evenodd" sketch:type="MSPage">
        <g id="Dynamic_Box_08" sketch:type="MSLayerGroup" fill="#1A1918">
            <path d="M172.953,206.768 L61.121,206.768 L61.121,156.092 L122.297,156.092 L122.297,94.935 L172.953,94.935 L172.953,206.768 L172.953,206.768 Z M61.121,94.935 L117.064,94.935 L117.064,150.86 L61.121,150.86 L61.121,94.935 Z M55.889,150.86 L5.232,150.86 L5.232,39.027 L117.064,39.027 L117.064,89.703 L55.889,89.703 L55.889,150.86 L55.889,150.86 Z M55.889,204.601 L7.398,156.092 L55.889,156.092 L55.889,204.601 L55.889,204.601 Z M122.297,41.195 L170.787,89.703 L122.297,89.703 L122.297,41.195 L122.297,41.195 Z M178.185,89.704 L178.185,89.703 L122.297,33.795 L0,33.795 L0,156.092 L55.888,212 L55.889,211.999 L55.889,212 L178.185,212 L178.185,89.704 L178.186,89.704 L178.185,89.704 L178.185,89.704 Z" id="Fill-1" sketch:type="MSShapeGroup"></path>
            <path d="M8.424,16.931 C6.84,16.931 5.701,16.266 5.289,14.936 L0,14.936 C0.697,18.768 3.864,21.017 8.519,21.017 C12.763,21.017 16.12,18.736 16.12,14.746 C16.12,11.738 14.283,9.933 10.958,9.141 L7.158,8.254 C6.144,8.032 5.542,7.557 5.542,6.702 C5.542,5.625 6.524,4.992 7.981,4.992 C9.659,4.992 10.546,5.816 10.958,6.892 L15.93,6.892 C15.392,3.535 12.7,0.938 7.949,0.938 C3.642,0.938 0.475,3.44 0.475,7.24 C0.475,10.534 2.629,12.023 5.479,12.656 L9.216,13.448 C10.451,13.733 11.053,14.145 11.053,15.063 C11.053,16.266 9.976,16.931 8.424,16.931" id="Fill-2" sketch:type="MSShapeGroup"></path>
            <path d="M23.337,5.531 L26.283,5.531 C28.12,5.531 28.943,6.48 28.943,7.969 C28.943,9.426 28.12,10.407 26.283,10.407 L23.337,10.407 L23.337,5.531 L23.337,5.531 Z M23.337,14.651 L26.821,14.651 C31.034,14.651 33.884,12.276 33.884,7.969 C33.884,3.63 31.034,1.255 26.821,1.255 L18.302,1.255 L18.302,20.7 L23.337,20.7 L23.337,14.651 L23.337,14.651 Z" id="Fill-3" sketch:type="MSShapeGroup"></path>
            <path d="M42.653,7.272 L44.648,12.751 L40.657,12.751 L42.653,7.272 L42.653,7.272 Z M37.744,20.7 L39.106,16.931 L46.169,16.931 L47.562,20.7 L52.724,20.7 L45.313,1.255 L40.119,1.255 L32.709,20.7 L37.744,20.7 L37.744,20.7 Z" id="Fill-4" sketch:type="MSShapeGroup"></path>
            <path d="M61.905,21.017 C66.75,21.017 69.601,18.135 70.297,14.145 L65.23,14.145 C64.724,15.601 63.679,16.551 61.905,16.551 C59.213,16.551 57.693,14.145 57.693,10.977 C57.693,7.778 59.213,5.403 61.905,5.403 C63.679,5.403 64.724,6.353 65.23,7.778 L70.297,7.778 C69.601,3.82 66.75,0.938 61.905,0.938 C56.458,0.938 52.562,5.087 52.562,10.977 C52.562,16.868 56.458,21.017 61.905,21.017" id="Fill-5" sketch:type="MSShapeGroup"></path>
            <path d="M86.319,16.298 L77.42,16.298 L77.42,12.941 L85.559,12.941 L85.559,8.665 L77.42,8.665 L77.42,5.625 L86.319,5.625 L86.319,1.255 L72.416,1.255 L72.416,20.7 L86.319,20.7 L86.319,16.298" id="Fill-6" sketch:type="MSShapeGroup"></path>
            <path d="M99.299,20.7 L104.239,20.7 L104.239,1.255 L100.819,1.255 L94.77,4.137 L94.77,8.95 L99.299,6.765 L99.299,20.7" id="Fill-7" sketch:type="MSShapeGroup"></path>
            <path d="M114.719,5.403 C116.967,5.403 117.855,7.969 117.855,10.977 C117.855,13.986 116.967,16.551 114.719,16.551 C112.47,16.551 111.584,13.986 111.584,10.977 C111.584,7.969 112.47,5.403 114.719,5.403 L114.719,5.403 Z M114.719,21.017 C119.501,21.017 122.794,16.899 122.794,10.977 C122.794,5.055 119.501,0.938 114.719,0.938 C109.937,0.938 106.675,5.055 106.675,10.977 C106.675,16.899 109.937,21.017 114.719,21.017 L114.719,21.017 Z" id="Fill-8" sketch:type="MSShapeGroup"></path>
        </g>
    </g>
</svg>