<?xml version="1.0" encoding="UTF-8" standalone="no"?>
<svg width="194px" height="274px" viewBox="0 0 194 274" version="1.1" xmlns="http://www.w3.org/2000/svg" xmlns:xlink="http://www.w3.org/1999/xlink" xmlns:sketch="http://www.bohemiancoding.com/sketch/ns">
    <!-- Generator: Sketch 3.2.2 (9983) - http://www.bohemiancoding.com/sketch -->
    <title>Untitled</title>
    <desc>Created with Sketch.</desc>
    <defs>
        <path id="path-1" d="M0.06,0.636 L193.292,0.636 L193.292,274 L0.06,274 L0.06,0.636 Z"></path>
    </defs>
    <g id="Page-1" stroke="none" stroke-width="1" fill="none" fill-rule="evenodd" sketch:type="MSPage">
        <g id="Dynamic_Box_03" sketch:type="MSLayerGroup">
            <g id="Group-4">
                <mask id="mask-2" sketch:name="Clip 2" fill="white">
                    <use xlink:href="#path-1"></use>
                </mask>
                <g id="Clip-2"></g>
                <path d="M167.723,182.292 L133.434,148.003 L167.735,113.703 L167.723,182.292 L167.723,182.292 Z M86.477,266.6 L7.399,187.523 L43.233,151.69 L86.49,194.947 L129.734,151.703 L165.554,187.523 L86.477,266.6 L86.477,266.6 Z M5.245,113.702 L39.533,147.99 L5.232,182.291 L5.245,113.702 L5.245,113.702 Z M126.035,148.003 L86.49,187.548 L46.932,147.99 L86.477,108.445 L126.035,148.003 L126.035,148.003 Z M86.49,29.393 L165.568,108.471 L129.734,144.304 L86.477,101.046 L43.233,144.29 L7.413,108.471 L86.49,29.393 L86.49,29.393 Z M172.967,108.471 L86.49,21.994 L0.014,108.47 L0.014,108.471 L0,187.523 L86.477,274 L172.953,187.523 L172.968,108.471 L172.966,108.471 L172.967,108.471 L172.967,108.471 Z" id="Fill-1" fill="#1A1918" sketch:type="MSShapeGroup" mask="url(#mask-2)"></path>
                <path d="M111.616,18.769 C113.743,16.642 113.721,14.067 111.929,11.155 L109.869,7.841 C109.309,6.968 109.219,6.206 109.825,5.601 C110.586,4.84 111.728,5.086 112.758,6.117 C113.945,7.303 113.99,8.513 113.52,9.565 L117.035,13.081 C119.029,10.327 118.962,6.587 115.602,3.228 C112.557,0.182 108.548,-0.288 105.861,2.399 C103.532,4.728 104.002,7.303 105.57,9.767 L107.652,12.969 C108.325,14.044 108.458,14.761 107.809,15.41 C106.958,16.261 105.727,15.97 104.629,14.873 C103.509,13.753 103.173,12.476 103.823,11.245 L100.083,7.505 C97.866,10.707 98.515,14.537 101.807,17.829 C104.808,20.83 108.795,21.591 111.616,18.769" id="Fill-3" fill="#1A1918" sketch:type="MSShapeGroup" mask="url(#mask-2)"></path>
            </g>
            <path d="M123.236,17.356 L125.319,19.439 C126.618,20.738 126.529,21.991 125.476,23.044 C124.445,24.074 123.169,24.186 121.87,22.887 L119.788,20.805 L123.236,17.356 L123.236,17.356 Z M112.51,28.083 L116.787,23.806 L119.25,26.269 C122.228,29.247 125.924,29.583 128.969,26.537 C132.037,23.47 131.701,19.775 128.723,16.796 L122.699,10.772 L108.949,24.522 L112.51,28.083 L112.51,28.083 Z" id="Fill-5" fill="#1A1918" sketch:type="MSShapeGroup"></path>
            <path d="M135.662,32.246 L133.199,37.531 L130.378,34.709 L135.662,32.246 L135.662,32.246 Z M122.697,38.27 L126.324,36.568 L131.318,41.562 L129.639,45.212 L133.289,48.862 L141.799,29.872 L138.126,26.199 L119.136,34.709 L122.697,38.27 L122.697,38.27 Z" id="Fill-6" fill="#1A1918" sketch:type="MSShapeGroup"></path>
            <path d="M139.557,55.578 C142.983,59.004 147.037,58.981 150.351,56.653 L146.768,53.07 C145.379,53.741 143.969,53.674 142.714,52.42 C140.811,50.517 141.438,47.74 143.677,45.5 C145.939,43.238 148.694,42.634 150.597,44.537 C151.852,45.791 151.919,47.202 151.269,48.568 L154.852,52.151 C157.159,48.859 157.181,44.806 153.755,41.38 C149.903,37.528 144.215,37.708 140.05,41.873 C135.884,46.038 135.705,51.726 139.557,55.578" id="Fill-7" fill="#1A1918" sketch:type="MSShapeGroup"></path>
            <path d="M157.044,72.617 L160.157,69.505 L153.864,63.212 L156.238,60.838 L161.993,66.593 L165.017,63.57 L159.261,57.815 L161.411,55.665 L167.704,61.958 L170.794,58.868 L160.963,49.037 L147.213,62.786 L157.044,72.617" id="Fill-8" fill="#1A1918" sketch:type="MSShapeGroup"></path>
            <g id="Group-12" fill="#1A1918" sketch:type="MSShapeGroup">
                <path d="M166.222,81.795 L169.716,85.288 L183.465,71.539 L181.047,69.121 L174.732,66.881 L171.328,70.284 L176.076,71.942 L166.222,81.795" id="Fill-9"></path>
                <path d="M186.218,88.041 C184.091,90.169 181.65,91.356 180.06,89.765 C178.47,88.175 179.656,85.735 181.784,83.607 C183.911,81.48 186.353,80.293 187.943,81.883 C189.533,83.473 188.345,85.914 186.218,88.041 L186.218,88.041 Z M191.1,78.725 C187.718,75.344 182.501,75.948 178.313,80.136 C174.126,84.324 173.52,89.542 176.902,92.923 C180.283,96.305 185.524,95.722 189.711,91.534 C193.899,87.347 194.481,82.107 191.1,78.725 L191.1,78.725 Z" id="Fill-11"></path>
            </g>
        </g>
    </g>
</svg>