<?xml version="1.0" encoding="UTF-8" standalone="no"?>
<svg width="194px" height="272px" viewBox="0 0 194 272" version="1.1" xmlns="http://www.w3.org/2000/svg" xmlns:xlink="http://www.w3.org/1999/xlink" xmlns:sketch="http://www.bohemiancoding.com/sketch/ns">
    <!-- Generator: Sketch 3.2.2 (9983) - http://www.bohemiancoding.com/sketch -->
    <title>Untitled</title>
    <desc>Created with Sketch.</desc>
    <defs>
        <path id="path-1" d="M0.06,0.361 L193.146,0.361 L193.146,272 L0.06,272 L0.06,0.361 Z"></path>
    </defs>
    <g id="Page-1" stroke="none" stroke-width="1" fill="none" fill-rule="evenodd" sketch:type="MSPage">
        <g id="Dynamic_Box_05" sketch:type="MSLayerGroup">
            <g id="Group-4">
                <mask id="mask-2" sketch:name="Clip 2" fill="white">
                    <use xlink:href="#path-1"></use>
                </mask>
                <g id="Clip-2"></g>
                <path d="M187.901,180.292 L153.613,146.004 L187.914,111.703 L187.901,180.292 L187.901,180.292 Z M106.656,264.6 L27.578,185.523 L63.411,149.69 L106.669,192.947 L149.913,149.703 L185.733,185.523 L106.656,264.6 L106.656,264.6 Z M25.423,111.701 L59.712,145.99 L25.411,180.291 L25.423,111.701 L25.423,111.701 Z M146.214,146.003 L106.669,185.548 L67.111,145.99 L106.656,106.445 L146.214,146.003 L146.214,146.003 Z M106.669,27.393 L185.746,106.471 L149.913,142.304 L106.656,99.046 L63.411,142.291 L27.591,106.471 L106.669,27.393 L106.669,27.393 Z M193.146,106.471 L193.146,106.471 L106.669,19.994 L20.193,106.471 L20.178,185.523 L20.179,185.523 L106.656,272 L193.132,185.524 L193.132,185.522 L193.146,106.471 L193.146,106.471 Z" id="Fill-1" fill="#1A1918" sketch:type="MSShapeGroup" mask="url(#mask-2)"></path>
                <path d="M10.519,81.724 L7.205,83.784 C6.332,84.344 5.57,84.434 4.965,83.829 C4.204,83.067 4.45,81.925 5.48,80.895 C6.667,79.708 7.877,79.664 8.929,80.134 L12.445,76.618 C9.69,74.625 5.951,74.692 2.592,78.051 C-0.454,81.096 -0.924,85.105 1.763,87.793 C4.092,90.121 6.667,89.651 9.131,88.083 L12.333,86.001 C13.408,85.329 14.125,85.195 14.774,85.844 C15.625,86.695 15.334,87.927 14.237,89.024 C13.117,90.144 11.84,90.48 10.609,89.831 L6.869,93.57 C10.071,95.787 13.901,95.138 17.193,91.846 C20.194,88.845 20.955,84.859 18.133,82.037 C16.006,79.91 13.431,79.932 10.519,81.724" id="Fill-3" fill="#1A1918" sketch:type="MSShapeGroup" mask="url(#mask-2)"></path>
            </g>
            <path d="M20.169,73.865 L16.72,70.417 L18.803,68.335 C20.102,67.036 21.356,67.125 22.408,68.178 C23.438,69.208 23.55,70.484 22.251,71.783 L20.169,73.865 L20.169,73.865 Z M27.447,81.144 L23.17,76.867 L25.633,74.403 C28.611,71.425 28.947,67.73 25.901,64.684 C22.834,61.616 19.139,61.952 16.16,64.931 L10.136,70.954 L23.886,84.704 L27.447,81.144 L27.447,81.144 Z" id="Fill-5" fill="#1A1918" sketch:type="MSShapeGroup"></path>
            <path d="M36.895,60.454 L34.073,63.276 L31.61,57.991 L36.895,60.454 L36.895,60.454 Z M37.634,70.957 L35.932,67.329 L40.926,62.335 L44.576,64.014 L48.226,60.364 L29.236,51.855 L25.563,55.527 L34.073,74.517 L37.634,70.957 L37.634,70.957 Z" id="Fill-6" fill="#1A1918" sketch:type="MSShapeGroup"></path>
            <path d="M54.942,54.096 C58.368,50.67 58.345,46.617 56.017,43.303 L52.434,46.886 C53.106,48.274 53.038,49.685 51.784,50.939 C49.881,52.842 47.104,52.216 44.864,49.976 C42.602,47.714 41.998,44.96 43.901,43.056 C45.155,41.802 46.566,41.735 47.932,42.384 L51.515,38.801 C48.223,36.495 44.171,36.472 40.744,39.898 C36.892,43.75 37.072,49.439 41.236,53.604 C45.402,57.769 51.09,57.948 54.942,54.096" id="Fill-7" fill="#1A1918" sketch:type="MSShapeGroup"></path>
            <path d="M71.981,36.609 L68.868,33.496 L62.576,39.789 L60.202,37.415 L65.957,31.66 L62.934,28.637 L57.179,34.392 L55.029,32.242 L61.322,25.949 L58.231,22.859 L48.401,32.69 L62.15,46.44 L71.981,36.609" id="Fill-8" fill="#1A1918" sketch:type="MSShapeGroup"></path>
            <g id="Group-12" fill="#1A1918" sketch:type="MSShapeGroup">
                <path d="M71.306,17.577 L81.16,27.431 L84.652,23.938 L70.903,10.188 L68.485,12.606 L66.245,18.922 L69.648,22.325 L71.306,17.577" id="Fill-9"></path>
                <path d="M81.246,5.711 C82.837,4.121 85.278,5.308 87.405,7.435 C89.533,9.563 90.719,12.003 89.129,13.593 C87.54,15.183 85.099,13.997 82.971,11.869 C80.844,9.742 79.657,7.301 81.246,5.711 L81.246,5.711 Z M92.287,16.751 C95.669,13.37 95.086,8.129 90.899,3.942 C86.711,-0.246 81.471,-0.828 78.089,2.553 C74.708,5.935 75.312,11.153 79.5,15.34 C83.688,19.528 88.906,20.133 92.287,16.751 L92.287,16.751 Z" id="Fill-11"></path>
            </g>
        </g>
    </g>
</svg>