<?xml version="1.0" encoding="UTF-8" standalone="no"?>
<svg width="212px" height="179px" viewBox="0 0 212 179" version="1.1" xmlns="http://www.w3.org/2000/svg" xmlns:xlink="http://www.w3.org/1999/xlink" xmlns:sketch="http://www.bohemiancoding.com/sketch/ns">
    <!-- Generator: Sketch 3.2.2 (9983) - http://www.bohemiancoding.com/sketch -->
    <title>Untitled</title>
    <desc>Created with Sketch.</desc>
    <defs>
        <path id="path-1" d="M0.06,0.815 L211.062,0.815 L211.062,178.94 L0.06,178.94 L0.06,0.815 Z"></path>
    </defs>
    <g id="Page-1" stroke="none" stroke-width="1" fill="none" fill-rule="evenodd" sketch:type="MSPage">
        <g id="Dynamic_Box_04" sketch:type="MSLayerGroup">
            <g id="Group-3">
                <mask id="mask-2" sketch:name="Clip 2" fill="white">
                    <use xlink:href="#path-1"></use>
                </mask>
                <g id="Clip-2"></g>
                <path d="M172.972,117.879 L122.296,117.879 L122.296,56.704 L61.14,56.704 L61.14,6.047 L172.972,6.047 L172.972,117.879 L172.972,117.879 Z M122.296,171.602 L122.296,123.111 L170.805,123.111 L122.296,171.602 L122.296,171.602 Z M61.14,61.936 L117.064,61.936 L117.064,117.879 L61.14,117.879 L61.14,61.936 Z M117.064,173.768 L5.232,173.768 L5.232,61.936 L55.908,61.936 L55.908,123.111 L117.064,123.111 L117.064,173.768 L117.064,173.768 Z M55.908,8.212 L55.908,56.704 L7.399,56.704 L55.908,8.212 L55.908,8.212 Z M178.204,123.111 L178.204,0.815 L55.908,0.815 L0,56.703 L0.001,56.704 L0,56.704 L0,179 L122.296,179 L178.204,123.112 L178.204,123.111 L178.204,123.111 Z" id="Fill-1" fill="#1A1918" sketch:type="MSShapeGroup" mask="url(#mask-2)"></path>
            </g>
            <path d="M197.254,16.935 C200.262,16.935 202.067,15.098 202.859,11.773 L203.746,7.972 C203.968,6.959 204.443,6.357 205.298,6.357 C206.375,6.357 207.008,7.339 207.008,8.796 C207.008,10.474 206.184,11.361 205.108,11.773 L205.108,16.745 C208.465,16.206 211.062,13.515 211.062,8.764 C211.062,4.457 208.56,1.29 204.759,1.29 C201.466,1.29 199.977,3.443 199.344,6.294 L198.552,10.031 C198.267,11.266 197.855,11.868 196.937,11.868 C195.734,11.868 195.069,10.791 195.069,9.239 C195.069,7.655 195.734,6.515 197.063,6.104 L197.063,0.815 C193.231,1.511 190.983,4.679 190.983,9.334 C190.983,13.578 193.263,16.935 197.254,16.935" id="Fill-4" fill="#1A1918" sketch:type="MSShapeGroup"></path>
            <path d="M206.469,27.097 C206.469,28.935 205.52,29.758 204.031,29.758 C202.574,29.758 201.592,28.935 201.592,27.097 L201.592,24.152 L206.469,24.152 L206.469,27.097 L206.469,27.097 Z M210.745,19.117 L191.3,19.117 L191.3,24.152 L197.348,24.152 L197.348,27.636 C197.348,31.848 199.724,34.698 204.031,34.698 C208.37,34.698 210.745,31.848 210.745,27.636 L210.745,19.117 L210.745,19.117 Z" id="Fill-5" fill="#1A1918" sketch:type="MSShapeGroup"></path>
            <path d="M199.249,41.472 L204.727,43.468 L199.249,45.463 L199.249,41.472 L199.249,41.472 Z M191.3,48.377 L191.3,53.539 L210.745,46.128 L210.745,40.934 L191.3,33.523 L191.3,38.559 L195.069,39.921 L195.069,46.983 L191.3,48.377 L191.3,48.377 Z" id="Fill-6" fill="#1A1918" sketch:type="MSShapeGroup"></path>
            <path d="M201.022,53.377 C195.132,53.377 190.983,57.272 190.983,62.72 C190.983,67.565 193.865,70.415 197.855,71.112 L197.855,66.045 C196.399,65.538 195.449,64.493 195.449,62.72 C195.449,60.028 197.855,58.507 201.022,58.507 C204.221,58.507 206.596,60.028 206.596,62.72 C206.596,64.493 205.646,65.538 204.221,66.045 L204.221,71.112 C208.18,70.415 211.062,67.565 211.062,62.72 C211.062,57.272 206.913,53.377 201.022,53.377" id="Fill-7" fill="#1A1918" sketch:type="MSShapeGroup"></path>
            <path d="M210.745,87.134 L210.745,73.231 L191.3,73.231 L191.3,87.134 L195.702,87.134 L195.702,78.235 L199.059,78.235 L199.059,86.374 L203.334,86.374 L203.334,78.235 L206.375,78.235 L206.375,87.134 L210.745,87.134" id="Fill-8" fill="#1A1918" sketch:type="MSShapeGroup"></path>
            <path d="M191.3,105.053 L210.745,105.053 L210.745,101.634 L207.863,95.584 L203.049,95.584 L205.235,100.114 L191.3,100.114 L191.3,105.053" id="Fill-9" fill="#1A1918" sketch:type="MSShapeGroup"></path>
            <path d="M201.022,118.669 C198.014,118.669 195.449,117.782 195.449,115.534 C195.449,113.285 198.014,112.398 201.022,112.398 C204.031,112.398 206.596,113.285 206.596,115.534 C206.596,117.782 204.031,118.669 201.022,118.669 L201.022,118.669 Z M201.022,107.49 C195.1,107.49 190.983,110.752 190.983,115.534 C190.983,120.316 195.1,123.609 201.022,123.609 C206.945,123.609 211.062,120.316 211.062,115.534 C211.062,110.752 206.945,107.49 201.022,107.49 L201.022,107.49 Z" id="Fill-10" fill="#1A1918" sketch:type="MSShapeGroup"></path>
        </g>
    </g>
</svg>