<?xml version="1.0" encoding="UTF-8" standalone="no"?>
<svg width="694px" height="791px" viewBox="0 0 694 791" version="1.1" xmlns="http://www.w3.org/2000/svg" xmlns:xlink="http://www.w3.org/1999/xlink" xmlns:sketch="http://www.bohemiancoding.com/sketch/ns">
    <!-- Generator: Sketch 3.2.2 (9983) - http://www.bohemiancoding.com/sketch -->
    <title>play</title>
    <desc>Created with Sketch.</desc>
    <defs></defs>
    <g id="Page-1" stroke="none" stroke-width="1" fill="none" fill-rule="evenodd" sketch:type="MSPage">
        <g id="play" sketch:type="MSLayerGroup" fill="#FFFFFF">
            <path d="M110.3,99.7 L136.9,66 L69,12.7 C53.6,0.5 36.6,-2.6 22.7,4.1 C8.8,10.8 0.7,26.1 0.7,45.8 L0.7,745 C0.7,764.8 8.8,779.9 22.7,786.7 C27.5,789.1 32.7,790.3 38.1,790.3 C48.2,790.3 58.9,786.1 69.1,778.2 L130.9,729.6 L104.4,695.9 L43.6,743.7 L43.6,47.1 L110.3,99.7 L110.3,99.7 Z M671.6,352.1 L240.4,12.7 C230.1,4.6 219.8,0.6 209.6,0.6 C190.9,0.6 172,14.6 172,45.9 L172,745 C172,776.3 190.8,790.3 209.6,790.3 C219.9,790.3 230.2,786.2 240.4,778.2 L671.5,438.8 C685.5,427.7 693.6,411.9 693.6,395.4 C693.6,378.9 685.6,363.1 671.6,352.1 L671.6,352.1 L671.6,352.1 Z M214.9,182 L473.6,385.7 C477.3,388.6 479.4,392 479.4,395.3 C479.4,398.6 477.3,402.1 473.6,405 L214.9,608.7 L214.9,182 L214.9,182 Z M645.1,405.1 L214.9,743.7 L214.9,663.4 L500.2,438.7 C514.1,427.7 522.2,411.9 522.2,395.4 C522.2,378.9 514.1,363.1 500.2,352.1 L214.9,127.6 L214.9,47.1 L645.1,385.7 C648.8,388.6 650.7,392 650.7,395.3 C650.7,398.8 648.7,402.2 645.1,405.1 L645.1,405.1 L645.1,405.1 Z" id="Shape" sketch:type="MSShapeGroup"></path>
        </g>
    </g>
</svg>