<?xml version="1.0" encoding="UTF-8" standalone="no"?>
<svg width="259px" height="44px" viewBox="0 0 259 44" version="1.1" xmlns="http://www.w3.org/2000/svg" xmlns:xlink="http://www.w3.org/1999/xlink" xmlns:sketch="http://www.bohemiancoding.com/sketch/ns">
    <!-- Generator: Sketch 3.2.2 (9983) - http://www.bohemiancoding.com/sketch -->
    <title>text-logo 2</title>
    <desc>Created with Sketch.</desc>
    <defs></defs>
    <g id="Page-1" stroke="none" stroke-width="1" fill="none" fill-rule="evenodd" sketch:type="MSPage">
        <g id="text-logo" sketch:type="MSLayerGroup" fill="#231F20">
            <g id="Group" sketch:type="MSShapeGroup">
                <path d="M23.8,18.1 L15.8,16.2 C13.7,15.7 12.4,14.7 12.4,12.9 C12.4,10.6 14.5,9.3 17.5,9.3 C21,9.3 22.9,11 23.7,13.3 L34.1,13.3 C33,6.3 27.3,0.8 17.4,0.8 C8.4,0.8 1.7,6 1.7,14 C1.7,20.9 6.2,24 12.2,25.4 L20,27.1 C22.6,27.7 23.9,28.6 23.9,30.5 C23.9,33 21.6,34.4 18.4,34.4 C15.1,34.4 12.7,33 11.8,30.2 L0.7,30.2 C2.2,38.2 8.8,43 18.6,43 C27.5,43 34.5,38.2 34.5,29.8 C34.6,23.5 30.8,19.7 23.8,18.1 L23.8,18.1 Z" id="Shape"></path>
                <path d="M57.1,1.5 L39.2,1.5 L39.2,42.3 L49.8,42.3 L49.8,29.6 L57.1,29.6 C65.9,29.6 71.9,24.6 71.9,15.6 C71.9,6.5 65.9,1.5 57.1,1.5 L57.1,1.5 Z M55.9,20.7 L49.7,20.7 L49.7,10.5 L55.9,10.5 C59.8,10.5 61.5,12.5 61.5,15.6 C61.5,18.7 59.8,20.7 55.9,20.7 L55.9,20.7 Z" id="Shape"></path>
                <path d="M85,1.5 L69.5,42.3 L80,42.3 L82.9,34.4 L97.7,34.4 L100.6,42.3 L111.4,42.3 L95.9,1.5 L85,1.5 L85,1.5 Z M86.1,25.7 L90.3,14.2 L94.5,25.7 L86.1,25.7 L86.1,25.7 Z" id="Shape"></path>
                <path d="M130.7,10.2 C134.4,10.2 136.6,12.2 137.7,15.2 L148.3,15.2 C146.8,6.9 140.9,0.8 130.7,0.8 C119.3,0.8 111.1,9.5 111.1,21.9 C111.1,34.3 119.3,43 130.7,43 C140.9,43 146.8,37 148.3,28.6 L137.7,28.6 C136.6,31.7 134.4,33.6 130.7,33.6 C125.1,33.6 121.9,28.6 121.9,21.9 C121.8,15.2 125,10.2 130.7,10.2 L130.7,10.2 Z" id="Shape"></path>
                <path d="M152.7,42.3 L181.9,42.3 L181.9,33.1 L163.2,33.1 L163.2,26.1 L180.3,26.1 L180.3,17.1 L163.2,17.1 L163.2,10.7 L181.9,10.7 L181.9,1.5 L152.7,1.5 L152.7,42.3 Z" id="Shape"></path>
                <path d="M199.6,7.6 L199.6,17.7 L209.1,13.1 L209.1,42.3 L219.5,42.3 L219.5,1.5 L212.3,1.5 L199.6,7.6 Z" id="Shape"></path>
                <path d="M241.5,0.9 C231.5,0.9 224.6,9.5 224.6,22 C224.6,34.4 231.4,43.1 241.5,43.1 C251.5,43.1 258.4,34.5 258.4,22 C258.4,9.5 251.5,0.9 241.5,0.9 L241.5,0.9 Z M241.5,33.6 C236.8,33.6 234.9,28.2 234.9,21.9 C234.9,15.6 236.8,10.2 241.5,10.2 C246.2,10.2 248.1,15.6 248.1,21.9 C248.1,28.2 246.2,33.6 241.5,33.6 L241.5,33.6 Z" id="Shape"></path>
            </g>
        </g>
    </g>
</svg>