<?xml version="1.0" encoding="UTF-8" standalone="no"?>
<svg width="135px" height="23px" viewBox="0 0 135 23" version="1.1" xmlns="http://www.w3.org/2000/svg" xmlns:xlink="http://www.w3.org/1999/xlink" xmlns:sketch="http://www.bohemiancoding.com/sketch/ns">
    <!-- Generator: Sketch 3.2.2 (9983) - http://www.bohemiancoding.com/sketch -->
    <title>Untitled</title>
    <desc>Created with Sketch.</desc>
    <defs>
        <path id="path-1" d="M0.06,0.954 L134.822,0.954 L134.822,22.94 L0.06,22.94"></path>
        <path id="path-3" d="M0.06,0.954 L134.822,0.954 L134.822,22.94 L0.06,22.94 L0.06,0.954 Z"></path>
        <path id="path-5" d="M0.06,0.954 L134.822,0.954 L134.822,22.94 L0.06,22.94"></path>
    </defs>
    <g id="Page-1" stroke="none" stroke-width="1" fill="none" fill-rule="evenodd" sketch:type="MSPage">
        <g id="white" sketch:type="MSLayerGroup">
            <g id="Group-3">
                <mask id="mask-2" sketch:name="Clip 2" fill="white">
                    <use xlink:href="#path-1"></use>
                </mask>
                <g id="Clip-2"></g>
                <path d="M12.031,9.96 L7.858,8.987 C6.746,8.743 6.085,8.222 6.085,7.282 C6.085,6.1 7.163,5.405 8.762,5.405 C10.605,5.405 11.579,6.309 12.031,7.492 L17.49,7.492 C16.899,3.806 13.944,0.954 8.728,0.954 C3.999,0.954 0.521,3.701 0.521,7.874 C0.521,11.49 2.886,13.125 6.015,13.82 L10.118,14.689 C11.474,15.002 12.135,15.455 12.135,16.463 C12.135,17.784 10.953,18.514 9.249,18.514 C7.51,18.514 6.259,17.784 5.807,16.324 L0,16.324 C0.765,20.531 4.242,23 9.354,23 C14.013,23 17.699,20.496 17.699,16.115 C17.699,12.812 15.682,10.83 12.031,9.96" id="Fill-1" fill="#FFFFFF" sketch:type="MSShapeGroup" mask="url(#mask-2)"></path>
            </g>
            <path d="M28.857,11.351 L25.623,11.351 L25.623,5.997 L28.857,5.997 C30.874,5.997 31.778,7.039 31.778,8.674 C31.778,10.273 30.874,11.351 28.857,11.351 L28.857,11.351 Z M29.448,1.302 L20.094,1.302 L20.094,22.652 L25.623,22.652 L25.623,16.011 L29.448,16.011 C34.073,16.011 37.202,13.402 37.202,8.674 C37.202,3.91 34.073,1.302 29.448,1.302 L29.448,1.302 Z" id="Fill-4" fill="#FFFFFF" sketch:type="MSShapeGroup"></path>
            <g id="Group-8">
                <mask id="mask-4" sketch:name="Clip 6" fill="white">
                    <use xlink:href="#path-3"></use>
                </mask>
                <g id="Clip-6"></g>
                <path d="M44.64,13.924 L46.83,7.909 L49.021,13.924 L44.64,13.924 L44.64,13.924 Z M44.049,1.302 L35.912,22.652 L41.441,22.652 L42.936,18.514 L50.69,18.514 L52.22,22.652 L57.888,22.652 L49.752,1.302 L44.049,1.302 L44.049,1.302 Z" id="Fill-5" fill="#FFFFFF" sketch:type="MSShapeGroup" mask="url(#mask-4)"></path>
                <path d="M67.968,5.857 C69.915,5.857 71.063,6.9 71.619,8.465 L77.183,8.465 C76.417,4.118 73.288,0.954 67.968,0.954 C61.987,0.954 57.71,5.51 57.71,11.977 C57.71,18.445 61.987,23 67.968,23 C73.288,23 76.417,19.835 77.183,15.455 L71.619,15.455 C71.063,17.053 69.915,18.097 67.968,18.097 C65.012,18.097 63.343,15.455 63.343,11.977 C63.343,8.465 65.012,5.857 67.968,5.857" id="Fill-7" fill="#FFFFFF" sketch:type="MSShapeGroup" mask="url(#mask-4)"></path>
            </g>
            <path d="M79.508,22.652 L94.773,22.652 L94.773,17.819 L85.003,17.819 L85.003,14.133 L93.939,14.133 L93.939,9.438 L85.003,9.438 L85.003,6.1 L94.773,6.1 L94.773,1.302 L79.508,1.302 L79.508,22.652" id="Fill-9" fill="#FFFFFF" sketch:type="MSShapeGroup"></path>
            <g id="Group-13">
                <mask id="mask-6" sketch:name="Clip 11" fill="white">
                    <use xlink:href="#path-5"></use>
                </mask>
                <g id="Clip-11"></g>
                <path d="M104.052,4.466 L104.052,9.751 L109.024,7.352 L109.024,22.652 L114.448,22.652 L114.448,1.302 L110.694,1.302 L104.052,4.466" id="Fill-10" fill="#FFFFFF" sketch:type="MSShapeGroup" mask="url(#mask-6)"></path>
                <path d="M125.955,18.097 C123.486,18.097 122.513,15.28 122.513,11.977 C122.513,8.674 123.486,5.857 125.955,5.857 C128.424,5.857 129.398,8.674 129.398,11.977 C129.398,15.28 128.424,18.097 125.955,18.097 L125.955,18.097 Z M125.955,0.954 C120.704,0.954 117.123,5.475 117.123,11.977 C117.123,18.479 120.704,23 125.955,23 C131.206,23 134.822,18.479 134.822,11.977 C134.822,5.475 131.206,0.954 125.955,0.954 L125.955,0.954 Z" id="Fill-12" fill="#FFFFFF" sketch:type="MSShapeGroup" mask="url(#mask-6)"></path>
            </g>
        </g>
    </g>
</svg>