<?xml version="1.0" encoding="UTF-8" standalone="no"?>
<svg width="643px" height="643px" viewBox="0 0 643 643" version="1.1" xmlns="http://www.w3.org/2000/svg" xmlns:xlink="http://www.w3.org/1999/xlink" xmlns:sketch="http://www.bohemiancoding.com/sketch/ns">
    <!-- Generator: Sketch 3.2.2 (9983) - http://www.bohemiancoding.com/sketch -->
    <title>Untitled</title>
    <desc>Created with Sketch.</desc>
    <defs></defs>
    <g id="Page-1" stroke="none" stroke-width="1" fill="none" fill-rule="evenodd" sketch:type="MSPage">
        <g id="space10" sketch:type="MSLayerGroup" fill="#000000">
            <g id="Group" sketch:type="MSShapeGroup">
                <path d="M642.6,440.7 L642.6,440.7 L642.6,0 L201.9,0 L0.4,201.4 L0.4,642.1 L441.1,642.1 L642.6,440.7 L642.6,440.7 Z M201.9,26.7 L201.9,201.4 L27.1,201.4 L201.9,26.7 L201.9,26.7 Z M422.3,623.3 L19.3,623.3 L19.3,220.3 L201.9,220.3 L201.9,440.7 L422.3,440.7 L422.3,623.3 L422.3,623.3 Z M422.3,421.9 L220.8,421.9 L220.8,220.3 L422.3,220.3 L422.3,421.9 L422.3,421.9 Z M441.1,615.5 L441.1,440.7 L615.9,440.7 L441.1,615.5 L441.1,615.5 Z M623.7,421.9 L441.1,421.9 L441.1,201.4 L220.8,201.4 L220.8,18.9 L623.8,18.9 L623.8,421.9 L623.7,421.9 Z" id="Shape"></path>
            </g>
        </g>
    </g>
</svg>