<?xml version="1.0" encoding="UTF-8" standalone="no"?>
<svg width="647px" height="788px" viewBox="0 0 647 788" version="1.1" xmlns="http://www.w3.org/2000/svg" xmlns:xlink="http://www.w3.org/1999/xlink" xmlns:sketch="http://www.bohemiancoding.com/sketch/ns">
    <!-- Generator: Sketch 3.2.2 (9983) - http://www.bohemiancoding.com/sketch -->
    <title>Artboard 1</title>
    <desc>Created with Sketch.</desc>
    <defs></defs>
    <g id="Page-1" stroke="none" stroke-width="1" fill="none" fill-rule="evenodd" sketch:type="MSPage">
        <g id="Artboard-1" sketch:type="MSArtboardGroup" transform="translate(-142.000000, -67.000000)" fill="#000000">
            <g id="space10" sketch:type="MSLayerGroup" transform="translate(142.000000, 67.000000)">
                <g id="Group" sketch:type="MSShapeGroup">
                    <path d="M646.6,440.7 L646.6,440.7 L646.6,0 L205.9,0 L4.4,201.4 L4.4,642.1 L445.1,642.1 L646.6,440.7 L646.6,440.7 Z M205.9,26.7 L205.9,201.4 L31.1,201.4 L205.9,26.7 L205.9,26.7 Z M426.3,623.3 L23.3,623.3 L23.3,220.3 L205.9,220.3 L205.9,440.7 L426.3,440.7 L426.3,623.3 L426.3,623.3 Z M426.3,421.9 L224.8,421.9 L224.8,220.3 L426.3,220.3 L426.3,421.9 L426.3,421.9 Z M445.1,615.5 L445.1,440.7 L619.9,440.7 L445.1,615.5 L445.1,615.5 Z M627.7,421.9 L445.1,421.9 L445.1,201.4 L224.8,201.4 L224.8,18.9 L627.8,18.9 L627.8,421.9 L627.7,421.9 Z" id="Shape"></path>
                    <path d="M40.3,744.5 L26.6,741.3 C22.9,740.5 20.8,738.8 20.8,735.7 C20.8,731.8 24.3,729.5 29.6,729.5 C35.6,729.5 38.8,732.5 40.3,736.3 L58.2,736.3 C56.3,724.2 46.6,714.8 29.4,714.8 C13.9,714.8 2.5,723.8 2.5,737.5 C2.5,749.4 10.3,754.7 20.5,757 L34,759.9 C38.5,760.9 40.6,762.4 40.6,765.7 C40.6,770 36.7,772.4 31.1,772.4 C25.4,772.4 21.3,770 19.8,765.2 L0.8,765.2 C3.3,779 14.7,787.1 31.5,787.1 C46.8,787.1 58.9,778.9 58.9,764.5 C58.9,753.9 52.3,747.4 40.3,744.5 L40.3,744.5 Z" id="Shape"></path>
                    <path d="M97.5,716.1 L66.8,716.1 L66.8,786.2 L84.9,786.2 L84.9,764.4 L97.5,764.4 C112.7,764.4 122.9,755.8 122.9,740.3 C122.9,724.7 112.7,716.1 97.5,716.1 L97.5,716.1 Z M95.6,749.1 L85,749.1 L85,731.5 L95.6,731.5 C102.2,731.5 105.2,734.9 105.2,740.3 C105.1,745.5 102.2,749.1 95.6,749.1 L95.6,749.1 Z" id="Shape"></path>
                    <path d="M145.4,716.1 L118.7,786.2 L136.8,786.2 L141.7,772.6 L167.1,772.6 L172.1,786.2 L190.7,786.2 L164,716.1 L145.4,716.1 L145.4,716.1 Z M147.4,757.5 L154.6,737.8 L161.8,757.5 L147.4,757.5 L147.4,757.5 Z" id="Shape"></path>
                    <path d="M223.9,731.1 C230.3,731.1 234.1,734.5 235.9,739.7 L254.2,739.7 C251.7,725.4 241.4,715.1 224,715.1 C204.4,715.1 190.3,730.1 190.3,751.3 C190.3,772.5 204.3,787.5 224,787.5 C241.5,787.5 251.7,777.1 254.2,762.7 L235.9,762.7 C234.1,767.9 230.3,771.4 223.9,771.4 C214.2,771.4 208.7,762.7 208.7,751.3 C208.7,739.6 214.2,731.1 223.9,731.1 L223.9,731.1 Z" id="Shape"></path>
                    <path d="M261.8,786.2 L311.9,786.2 L311.9,770.3 L279.8,770.3 L279.8,758.2 L309.2,758.2 L309.2,742.8 L279.8,742.8 L279.8,731.9 L311.9,731.9 L311.9,716.1 L261.8,716.1 L261.8,786.2 Z" id="Shape"></path>
                    <path d="M342.3,726.5 L342.3,743.8 L358.7,736 L358.7,786.2 L376.5,786.2 L376.5,716.1 L364.1,716.1 L342.3,726.5 Z" id="Shape"></path>
                    <path d="M414.2,715 C397,715 385.2,729.8 385.2,751.2 C385.2,772.5 397,787.4 414.2,787.4 C431.4,787.4 443.3,772.6 443.3,751.2 C443.3,729.8 431.5,715 414.2,715 L414.2,715 Z M414.2,771.2 C406.1,771.2 402.9,762 402.9,751.1 C402.9,740.3 406.1,731 414.2,731 C422.3,731 425.5,740.2 425.5,751.1 C425.5,762 422.3,771.2 414.2,771.2 L414.2,771.2 Z" id="Shape"></path>
                </g>
            </g>
        </g>
    </g>
</svg>